<svg width="14" height="16" viewBox="0 0 14 16" fill="none" xmlns="http://www.w3.org/2000/svg">
<path d="M9.84861 0.945312C9.88305 0.945312 9.9175 0.945312 9.9539 0.945312C10.0384 1.94032 9.63996 2.68378 9.15572 3.22217C8.68058 3.75685 8.02994 4.27542 6.97761 4.19673C6.90741 3.21598 7.3065 2.52765 7.79009 1.9905C8.23858 1.4899 9.06082 1.04444 9.84861 0.945312Z" fill="#262626"/>
<path d="M13.0342 11.3018C13.0342 11.3117 13.0342 11.3204 13.0342 11.3297C12.7384 12.1834 12.3166 12.9151 11.8018 13.5942C11.3319 14.2106 10.756 15.0402 9.72768 15.0402C8.83915 15.0402 8.24896 14.4956 7.33833 14.4807C6.37504 14.4659 5.8453 14.9361 4.96457 15.0544C4.86382 15.0544 4.76307 15.0544 4.66428 15.0544C4.01754 14.9652 3.4956 14.477 3.11535 14.0371C1.99412 12.7373 1.12769 11.0583 0.966492 8.90971C0.966492 8.69906 0.966492 8.48903 0.966492 8.27838C1.03474 6.74065 1.81863 5.49039 2.86056 4.88447C3.41045 4.5623 4.16638 4.28784 5.00812 4.41051C5.36886 4.46379 5.73741 4.5815 6.06045 4.69798C6.3666 4.81012 6.74944 5.009 7.11213 4.99846C7.35783 4.99165 7.60222 4.8696 7.84987 4.78348C8.57526 4.5338 9.28634 4.24756 10.2236 4.38201C11.3501 4.54433 12.1495 5.02139 12.6435 5.75742C11.6907 6.33546 10.9373 7.20656 11.066 8.6941C11.1804 10.0454 12.0046 10.8359 13.0342 11.3018Z" fill="#262626"/>
</svg>
