<svg xmlns="http://www.w3.org/2000/svg" width="202" height="40" viewBox="0 0 202 40" fill="none">
  <path d="M199.616 4.88549L189.387 18.4669 182.833 9.98155 184.045 8.73585 189.387 11.9795 198.475 3.4861C194.014-1.20551 186.688-1.2864 182.125 3.30005 177.561 7.8865 177.483 15.4173 181.944 20.1089 186.405 24.8006 193.73 24.8814 198.294 20.295 202.37 16.1939 202.928 9.6499 199.616 4.88549Z" fill="url(#paint0_radial)"/>
  <path d="M0 34.6128V13.9536C1.98278 13.7514 4.81533 13.6543 8.50551 13.6543 11.7079 13.6543 13.8952 14.1477 15.0754 15.1184 16.2557 16.0891 16.8379 17.9495 16.8379 20.6917 16.8379 23.3853 16.295 25.2215 15.2092 26.2003 14.1234 27.1791 12.18 27.6644 9.38675 27.6644 8.36388 27.6644 7.34102 27.6078 6.32602 27.4865V34.6128H0ZM6.31816 23.086H8.36388C9.22152 23.086 9.78803 22.9243 10.0792 22.6088 10.3703 22.2933 10.5198 21.6543 10.5198 20.6917 10.5198 19.7129 10.3703 19.0577 10.0792 18.7342 9.78803 18.4106 9.21365 18.2407 8.36388 18.2407H6.31816V23.086Z" fill="#FF1A31"/>
  <path d="M26.2169 19.2197C29.191 19.2197 31.284 19.8102 32.5114 20.9993 33.7389 22.1884 34.3447 24.2349 34.3447 27.155 34.3447 30.0266 33.731 32.0488 32.5114 33.2218 31.2919 34.3866 29.191 34.9771 26.2169 34.9771 23.227 34.9771 21.1183 34.3947 19.8987 33.2218 18.6791 32.0488 18.0654 30.0266 18.0654 27.155 18.0654 24.243 18.6791 22.1884 19.8987 20.9993 21.1183 19.8183 23.227 19.2197 26.2169 19.2197ZM26.2169 23.4745C25.5009 23.4745 25.0288 23.701 24.8006 24.1621 24.5724 24.6232 24.4623 25.6181 24.4623 27.155 24.4623 28.6353 24.5724 29.5979 24.8006 30.0428 25.0288 30.4877 25.493 30.7142 26.2169 30.7142 26.9171 30.7142 27.3735 30.4877 27.6017 30.0428 27.8298 29.5979 27.94 28.6272 27.94 27.155 27.94 25.6181 27.8298 24.6232 27.6017 24.1621 27.3735 23.701 26.9093 23.4745 26.2169 23.4745Z" fill="#FF1A31"/>
  <path d="M49.3966 29.7917L49.9474 33.7149C48.3974 34.5562 46.2808 34.9687 43.5978 34.9687 40.7416 34.9687 38.7352 34.3782 37.5865 33.2053 36.4298 32.0243 35.8555 29.994 35.8555 27.0981 35.8555 24.2023 36.4377 22.1719 37.6022 20.9909 38.7667 19.8099 40.7888 19.2275 43.6607 19.2275 46.2257 19.2275 48.2557 19.5996 49.7507 20.3357L49.137 24.2265H44.7072C43.7551 24.2265 43.1099 24.4207 42.7716 24.8089 42.4333 25.1972 42.2602 25.9657 42.2602 27.0981 42.2602 28.2548 42.4333 29.0314 42.7716 29.4197 43.1099 29.8079 43.7551 30.0021 44.7072 30.0021 46.6113 30.0021 48.1771 29.9293 49.3966 29.7917Z" fill="#FF1A31"/>
  <path d="M63.3155 23.7408V23.9187C65.2746 24.218 66.565 24.849 67.1866 25.8035 67.8082 26.758 68.6894 29.3141 69.8382 33.4718 69.972 33.9733 70.0821 34.3535 70.1608 34.6124H63.5751C62.5444 30.6811 61.8835 28.3677 61.5923 27.6639 61.2068 26.7822 60.7111 26.2646 60.1052 26.1109 59.8141 26.03 59.405 25.9895 58.8857 25.9895H58.2169C58.3664 26.6043 58.4451 27.2352 58.4529 27.8743V34.6124H52.1348V13.9531H58.4529V19.1624C58.4608 20.0522 58.3585 20.9339 58.1618 21.7994H58.7991C60.003 21.7994 60.8213 21.4112 61.2461 20.6346 61.671 19.8581 62.2454 17.9167 62.9614 14.8267 63.0558 14.4466 63.1266 14.1553 63.166 13.9612H69.5785C68.4534 17.8358 67.8475 19.8904 67.7689 20.1331 67.2653 21.5729 66.6358 22.5194 65.8726 22.9804 65.3376 23.3283 64.4878 23.5871 63.3155 23.7408Z" fill="#00527B"/>
  <path d="M83.1513 26.831V26.9847C84.5125 27.0656 85.4881 27.4376 86.0783 28.0929 86.6684 28.7481 86.9674 29.6864 86.9674 30.9078 86.9674 32.4285 86.4717 33.4639 85.4803 34.0382 84.4889 34.6126 82.8523 34.8876 80.5548 34.8876 76.7072 34.8876 73.7409 34.831 71.6401 34.7096V19.6399C73.5206 19.5185 76.2037 19.4619 79.6814 19.4619 82.2071 19.4619 83.9539 19.7369 84.9216 20.287 85.8894 20.837 86.3773 21.8886 86.3773 23.4498 86.3773 24.5256 86.1255 25.3426 85.6219 25.8927 85.1183 26.4427 84.3001 26.7501 83.1513 26.831ZM77.3839 25.3911H79.4532C79.9568 25.3911 80.2951 25.3183 80.4761 25.1646 80.6571 25.011 80.7358 24.744 80.7358 24.3396 80.7358 23.9189 80.6413 23.6439 80.4604 23.4983 80.2794 23.3527 79.9253 23.288 79.3982 23.288H77.3918L77.3839 25.3911ZM77.3839 30.9564H79.4847C80.0276 30.9564 80.4053 30.8674 80.6099 30.6894 80.8144 30.5115 80.9167 30.1636 80.9167 29.6378 80.9167 29.1606 80.8144 28.837 80.6099 28.6672 80.4053 28.4973 80.0198 28.4164 79.4611 28.4164H77.3918L77.3839 30.9564Z" fill="#00527B"/>
  <path d="M89.5636 23.951L89.0128 19.9712C91.7509 19.4616 94.5284 19.2109 97.3137 19.2189 99.4696 19.2189 101.067 19.68 102.121 20.5941 103.176 21.5081 103.695 23.0936 103.695 25.3261V34.6123H98.8323L98.2815 32.5172C96.999 34.1916 95.3231 35.0329 93.2459 35.0329 91.806 35.0329 90.6179 34.6608 89.6658 33.9247 88.7138 33.1886 88.2417 32.137 88.2417 30.7781V29.2816C88.2417 28.0845 88.6666 27.138 89.5242 26.4505 90.3818 25.7629 91.5542 25.4151 93.0492 25.4151H97.5891V25.2938C97.5734 24.7518 97.4317 24.3716 97.1799 24.137 96.9282 23.9025 96.4876 23.7892 95.866 23.7892 93.718 23.8054 91.6172 23.8539 89.5636 23.951ZM94.1586 29.3706V29.8479C94.1586 30.4707 94.5677 30.7781 95.3781 30.7781 96.0155 30.7781 96.7472 30.5273 97.5655 30.0258V28.4404H95.268C94.5284 28.4485 94.1586 28.7558 94.1586 29.3706Z" fill="#00527B"/>
  <path d="M111.115 19.6403L111.61 21.6787C112.075 20.9992 112.806 20.433 113.798 19.9719 114.797 19.5109 115.875 19.2763 116.969 19.2844 118.81 19.2844 120.147 19.9639 120.974 21.3228 121.8 22.6818 122.217 24.6797 122.209 27.3086 122.209 30.2611 121.768 32.2915 120.895 33.3835 120.021 34.4755 118.621 35.0336 116.701 35.0336 114.821 35.0336 113.334 34.613 112.248 33.7798 112.326 35.1954 112.358 36.2874 112.334 37.0397V40.0003H106.221V19.6403H111.115ZM112.334 24.34V30.5361C112.948 30.7869 113.593 30.9244 114.254 30.9244 114.891 30.9244 115.332 30.7141 115.568 30.2773 115.804 29.8405 115.914 28.8779 115.914 27.3572 115.914 25.8365 115.804 24.8658 115.576 24.4371 115.348 24.0083 114.939 23.7899 114.341 23.7899 113.703 23.8061 113.035 23.9841 112.334 24.34Z" fill="#00527B"/>
  <path d="M138.346 24.3158H133.893V34.613H127.803V24.3158H123.35V19.6484H138.346V24.3158Z" fill="#00527B"/>
  <path d="M140.44 23.951L139.889 19.9712C142.627 19.4616 145.404 19.2109 148.19 19.2189 150.346 19.2189 151.943 19.68 152.997 20.5941 154.051 21.5081 154.571 23.0936 154.571 25.3261V34.6123H149.708L149.157 32.5172C147.875 34.1916 146.199 35.0329 144.122 35.0329 142.682 35.0329 141.494 34.6608 140.542 33.9247 139.59 33.1886 139.118 32.137 139.118 30.7781V29.2816C139.118 28.0845 139.543 27.138 140.4 26.4505 141.258 25.7629 142.43 25.4151 143.925 25.4151H148.465V25.2938C148.441 24.7518 148.308 24.3716 148.056 24.137 147.804 23.9025 147.364 23.7892 146.742 23.7892 144.594 23.8054 142.501 23.8539 140.44 23.951ZM145.042 29.3706V29.8479C145.042 30.4707 145.452 30.7781 146.262 30.7781 146.899 30.7781 147.631 30.5273 148.449 30.0258V28.4404H146.152C145.412 28.4485 145.042 28.7558 145.042 29.3706Z" fill="#00527B"/>
  <path d="M172.534 19.6396V34.6123H166.444V23.7165H165.689C164.934 23.7165 164.524 24.0643 164.469 24.7681 164.273 26.5638 164.029 28.5294 163.738 30.6649 163.564 31.9834 163.1 33.0026 162.353 33.7307 161.637 34.4425 160.708 34.8712 159.717 34.944 158.623 35.0168 157.53 34.9602 156.452 34.766L155.838 30.1877C155.972 30.1715 156.184 30.1472 156.475 30.1311 156.688 30.123 156.9 30.0987 157.113 30.0583 157.278 30.0178 157.435 29.9693 157.593 29.9046 157.766 29.8399 157.915 29.7266 158.017 29.5729 158.128 29.395 158.206 29.1927 158.253 28.9905 158.489 28.036 158.702 26.216 158.891 23.5385 159.064 20.942 160.394 19.6477 162.88 19.6477L172.534 19.6396Z" fill="#00527B"/>
  <defs>
    <radialGradient id="paint0_radial" cx="0" cy="0" r="1" gradientUnits="userSpaceOnUse" gradientTransform="translate(190.363 11.7288) scale(11.4089 11.729)">
      <stop stop-color="#FF5655"/>
      <stop offset="0.2" stop-color="#FF5353"/>
      <stop offset="0.35" stop-color="#FF494D"/>
      <stop offset="0.49" stop-color="#FF3842"/>
      <stop offset="0.63" stop-color="#FF2133"/>
      <stop offset="0.65" stop-color="#FF1C30"/>
      <stop offset="1" stop-color="#FF1A31"/>
    </radialGradient>
  </defs>
</svg>